# xmcd
#
# Track frame offsets:
#	150
#	15123
#	26503
#	41807
#	56061
#	68026
#	80123
#	85294
#	97091
#	107042
#	116668
#	129640
#	146368
#	159885
#	179805
#	199738
#	212507
#	223836
#	234377
#	246758
#	259433
#	270934
#	285033
#	300860
#	311305
#
# Disc length: 4349 seconds
#
# Revision: 0
# Processed by: cddbd v1.5.2PL0 Copyright (c) Steve Scherf et al.
# Submitted via: audiograbber 1.83.01
#
DISCID=5810fb19
DTITLE=varios - die besten country und western songs 2
DYEAR=1900
DGENRE=
TTITLE0=kingston trio - tom dooley
TTITLE1=johnny cash - Cry, Cry, Cry
TTITLE2=reeves - I Recall Gipsy Woman
TTITLE3=bob wills - Faded Love
TTITLE4=eddie kirk - Candy Kisses
TTITLE5=bob wills - San Antonio Rose
TTITLE6=gene autry - Colorado Sunset
TTITLE7=reeves - Is it Really over
TTITLE8=johnny bond - Red River Valley
TTITLE9=gene autry - That Silver-Haired Daddy Of Mine
TTITLE10=jack guthrie - Oklahoma Hills
TTITLE11=bowling - Blanket On The Ground
TTITLE12=wesley tuttle - With Tears In My Eyes
TTITLE13=cambine - Sunday Morning Coming down
TTITLE14=weehler - Coward Of The Country
TTITLE15=leon payne - I Love You Because
TTITLE16=gene autry - You Are My Sunshine
TTITLE17=tree - Movin On
TTITLE18=dolly paron - jolene
TTITLE19=roy acuff - Wreck On The Highway
TTITLE20=faron young - Country Girl
TTITLE21=dill - Gipsy Woman
TTITLE22=morrison - Midnight Angels
TTITLE23=jimmy c. newman - a fallen star
TTITLE24=lavine - Yellow Ribbon
EXTD=
EXTT0=
EXTT1=
EXTT2=
EXTT3=
EXTT4=
EXTT5=
EXTT6=
EXTT7=
EXTT8=
EXTT9=
EXTT10=
EXTT11=
EXTT12=
EXTT13=
EXTT14=
EXTT15=
EXTT16=
EXTT17=
EXTT18=
EXTT19=
EXTT20=
EXTT21=
EXTT22=
EXTT23=
EXTT24=
PLAYORDER=
